#!OML:ASF I:\Actors\actors\Patient Classification 2\Patient 1\Session 1\actor1.ASF
:FULLY-SPECIFIED
:DEGREES
465
root -0.678357 18.7244 5.5039 2.72453 -3.78722 -1.64844
lowerback 2.51238 1.61043 -0.929945
upperback 1.10902 2.12369 -0.103458
thorax -0.301319 1.05905 0.356548
lowerneck 4.84288 -1.82078 -0.760694
upperneck 14.4114 -3.00913 4.96822
head 3.9757 -1.34763 1.7345
rclavicle 1.38652e-014 7.95139e-016
rhumerus -10.2652 33.3876 -62.9703
rradius 129.993
rwrist -34.1853
rhand -7.6958 -39.097
rfingers 7.12502
rthumb 18.2015 -68.2654
lclavicle 1.38652e-014 7.95139e-016
lhumerus -3.70006 -38.6513 65.5721
lradius 128.937
lwrist 55.517
lhand -25.4746 -22.6183
lfingers 7.12502
lthumb 1.05321 7.35884
rfemur 0 0 0
rtibia 0
rfoot 0 0
rtoes 0
lfemur -5.03763 -7.30043 -12.9486
ltibia 21.1184
lfoot -25.0452 17.7413
ltoes -53.538
466
root -0.677233 18.7249 5.50702 2.74791 -3.78577 -1.65045
lowerback 2.50036 1.61359 -0.941698
upperback 1.03347 2.1275 -0.0799664
thorax -0.373322 1.06143 0.385958
lowerneck 4.48854 -1.83693 -0.644778
upperneck 14.5812 -3.02764 4.84816
head 4.0986 -1.34769 1.67227
rclavicle -1.43622e-014 -4.77083e-015
rhumerus -10.3791 33.5066 -63.027
rradius 129.479
rwrist -34.0711
rhand -7.75501 -39.2055
rfingers 7.12502
rthumb 18.1446 -68.3792
lclavicle -1.43622e-014 -4.77083e-015
lhumerus -4.00629 -38.7804 65.9495
lradius 128.425
lwrist 55.6731
lhand -25.3863 -22.6279
lfingers 7.12502
lthumb 1.13848 7.34883
rfemur 0 0 0
rtibia 0
rfoot 0 0
rtoes 0
lfemur -5.06615 -7.20174 -12.9379
ltibia 21.1295
lfoot -25.0073 17.7122
ltoes -53.6344
467
root -0.676074 18.7252 5.51014 2.78418 -3.80221 -1.65436
lowerback 2.47561 1.61596 -0.952083
upperback 0.948636 2.13053 -0.0411141
thorax -0.448235 1.06347 0.430546
lowerneck 4.24656 -1.86293 -0.514207
upperneck 14.6431 -3.04358 4.63998
head 4.15879 -1.35233 1.57689
rclavicle -1.22998e-014 -1.35174e-014
rhumerus -10.4541 33.6574 -63.073
rradius 128.928
rwrist -34.0837
rhand -7.65757 -39.3191
rfingers 7.12502
rthumb 18.2383 -68.4841
lclavicle -1.22998e-014 -1.35174e-014
lhumerus -4.34276 -38.8864 66.3569
lradius 127.918
lwrist 55.7272
lhand -25.399 -22.5072
lfingers 7.12502
lthumb 1.12619 7.46954
rfemur 0 0 0
rtibia 0
rfoot 0 0
rtoes 0
lfemur -5.09623 -7.14976 -12.9288
ltibia 21.132
lfoot -25.0114 17.6727
ltoes -53.6584
468
root -0.67479 18.7252 5.51326 2.80612 -3.81344 -1.65801
lowerback 2.45769 1.59798 -0.940425
upperback 0.883558 2.10698 -0.00514701
thorax -0.505435 1.05215 0.460823
lowerneck 4.09688 -1.85726 -0.417001
upperneck 14.5551 -3.01811 4.5022
head 4.14829 -1.33938 1.51169
rclavicle -2.38293e-014 5.1684e-015
rhumerus -10.5523 33.8624 -63.2213
rradius 128.375
rwrist -34.1412
rhand -7.53441 -39.273
rfingers 7.12502
rthumb 18.3568 -68.4268
lclavicle -2.38293e-014 5.1684e-015
lhumerus -4.71799 -38.9434 66.7383
lradius 127.415
lwrist 55.6394
lhand -25.3544 -22.3413
lfingers 7.12502
lthumb 1.16925 7.63521
rfemur 0 0 0
rtibia 0
rfoot 0 0
rtoes 0
lfemur -5.10423 -7.12001 -12.9274
ltibia 21.1252
lfoot -24.9718 17.631
ltoes -53.6045
469
root -0.674081 18.725 5.51688 2.81747 -3.81167 -1.62531
lowerback 2.46803 1.57737 -0.946627
upperback 0.81751 2.07894 -0.00643213
thorax -0.578592 1.03867 0.462272
lowerneck 3.91334 -1.82083 -0.449624
upperneck 14.4921 -2.98254 4.61811
head 4.16261 -1.31787 1.55621
rclavicle -1.99779e-014 -2.38542e-015
rhumerus -10.7207 34.0841 -63.4808
rradius 127.841
rwrist -34.1305
rhand -7.49758 -39.2164
rfingers 7.12502
rthumb 18.3922 -68.3669
lclavicle -1.99779e-014 -2.38542e-015
lhumerus -5.05446 -39.0628 67.0574
lradius 126.889
lwrist 55.6414
lhand -25.2683 -22.5529
lfingers 7.12502
lthumb 1.25245 7.42313
rfemur 0 0 0
rtibia 0
rfoot 0 0
rtoes 0
lfemur -5.1 -7.17091 -12.9748
ltibia 21.1195
lfoot -25.0038 17.6659
ltoes -53.5595
470
root -0.674153 18.7246 5.52114 2.81668 -3.80447 -1.59182
lowerback 2.46277 1.56931 -0.977563
upperback 0.765838 2.06732 -0.00117991
thorax -0.629662 1.03326 0.484489
lowerneck 3.65322 -1.79477 -0.514249
upperneck 14.4879 -2.97149 4.7971
head 4.21623 -1.30562 1.62766
rclavicle 1.08586e-014 7.55382e-015
rhumerus -10.8903 34.2685 -63.7169
rradius 127.296
rwrist -34.041
rhand -7.51656 -39.1499
rfingers 7.12502
rthumb 18.374 -68.3021
lclavicle 1.08586e-014 7.55382e-015
lhumerus -5.30996 -39.2253 67.3657
lradius 126.391
lwrist 55.7672
lhand -25.3028 -22.792
lfingers 7.12502
lthumb 1.21909 7.18426
rfemur 0 0 0
rtibia 0
rfoot 0 0
rtoes 0
lfemur -5.07939 -7.25981 -13.0232
ltibia 21.1123
lfoot -25.1008 17.731
ltoes -53.5363
